<?xml version="1.0" encoding="utf-8"?>
<!-- Generator: Adobe Illustrator 19.0.0, SVG Export Plug-In . SVG Version: 6.00 Build 0)  -->
<svg version="1.1" id="layer" xmlns="http://www.w3.org/2000/svg" xmlns:xlink="http://www.w3.org/1999/xlink" x="0px" y="0px"
	 viewBox="-153 -46 652 652" style="enable-background:new -153 -46 652 652;" xml:space="preserve">
<style type="text/css">
	.st0{fill:#1C344F;}
</style>
<path class="st0" d="M-83.1,279.8c1-1.1,1.7-2,2.5-2.9c8.3-10,16.6-20.1,24.9-30.2c3.1-3.7,7-5,11.6-3.7c4.6,1.3,7.2,4.6,7.9,9.3
	c0.4,2.9-0.4,5.8-2.3,8c-11.9,14.5-23.8,29-35.8,43.3c-4,4.9-11.2,5.5-16.1,1.5c0,0,0,0,0,0c-0.5-0.4-1-0.9-1.5-1.5
	c-12-14.3-24-28.8-35.8-43.3c-3.8-4.5-3.2-11.2,1.3-15c0.1-0.1,0.2-0.2,0.4-0.3c4.7-3.8,11.4-3.3,15.5,1.7
	c8.4,10.1,16.7,20.3,25.1,30.4C-84.8,277.9-84.1,278.7-83.1,279.8z M-78.6,294.4c0-2.6-2.1-4.8-4.8-4.8c0,0,0,0,0,0l0,0
	c-2.6,0-4.7,2-4.8,4.6c0,0,0,0,0,0v0.1c0,2.6,2.1,4.8,4.8,4.8c0,0,0,0,0,0C-80.7,299.1-78.6,297-78.6,294.4z M-42.6,253.4
	c0-2.6-2.2-4.7-4.8-4.6c0,0,0,0,0,0l0,0c-2.6,0.1-4.7,2.2-4.6,4.8c0,2.6,2.2,4.6,4.7,4.6c0,0,0,0,0,0h0.1c2.6,0,4.6-2.1,4.6-4.7
	c0,0,0,0,0,0L-42.6,253.4L-42.6,253.4z M-118.8,248.8c-2.6-0.1-4.8,2-4.8,4.6v0c-0.1,2.6,2,4.7,4.5,4.8h0.1c2.6,0.1,4.8-1.9,4.8-4.5
	c0,0,0,0,0,0v-0.1C-114.1,251-116.2,248.8-118.8,248.8L-118.8,248.8z M162.3,271.9v31h-9.8v-48.7c5-1.6,8.1-0.7,11.2,3.4l19.5,24.6
	c0.6,0.7,1.2,1.5,2.2,2.8v-31.1h9.8v49c-4.6,0.6-8.4,0.6-11.6-3.9c-6-8.4-12.8-16.3-19.2-24.5C163.9,273.8,163.3,273.2,162.3,271.9z
	 M460.1,284.8v-31h9.7v48.8c-5.3,1.5-8.1,0.6-11.3-3.5l-19.6-24.8c-0.5-0.6-1.1-1.2-2.1-2.4v31H427v-49c4.5-0.6,8.3-0.7,11.6,3.8
	c6.1,8.5,12.9,16.5,19.4,24.7C458.4,283,459,283.7,460.1,284.8z M343.7,278.2c0.1-14.6,10.8-25.1,25.7-25
	c14.9,0,25.7,10.7,25.6,25.4c-0.1,14.6-10.8,25.1-25.7,25C354.3,303.5,343.7,293,343.7,278.2z M383.4,278.2
	c-0.2-1.6-0.3-3.5-0.8-5.4c-1.5-6.4-6.1-10-12.9-10.2c-6.6-0.2-11.7,3-13.4,9.2c-0.8,3.3-1.1,6.8-0.7,10.2c0.7,7.6,5.8,12,13.2,12.2
	c7.6,0.2,12.6-3.8,14-11.4C383.2,281.4,383.3,279.9,383.4,278.2L383.4,278.2z M110.3,274.1v8.2H95.1v12h20.1c0,2.8,0.1,5.1-0.1,7.5
	c-0.2,0.6-0.7,1-1.3,1.2c-10,0.1-20,0.1-30.2,0.1v-49.2c0.9-0.1,1.6-0.2,2.4-0.2c8.9,0,17.8,0,26.7,0c1.9,0,2.7,0.4,2.6,2.4
	c-0.2,2,0,3.9,0,6.3h-8.7c-3.3,0-6.6-0.1-9.8,0.1c-0.8,0.2-1.4,0.7-1.7,1.5c-0.2,2.8,0,5.7-0.1,8.5c0,1.7,1.1,1.6,2.3,1.6
	L110.3,274.1z M2.5,253.7c3.6,0,6.8-0.3,9.9,0.1c1.2,0.2,2.7,1.7,3.1,2.9c3.8,10.3,7.5,20.6,11.2,30.9c0.2,0.6,0.5,1.2,0.8,2
	c3.5-9.7,6.8-19.2,10.2-28.7c2.8-7.9,2.2-7.4,10.3-7.4h4.3c-0.4,1.2-0.7,2-1,2.8c-5.9,14.7-11.8,29.5-17.7,44.3
	c-0.7,1.7-1.4,2.5-3.3,2.4c-2.6-0.2-5.8,0.8-7.6-0.5c-1.8-1.2-2.3-4.5-3.3-6.8C13.8,282,8.3,268.1,2.5,253.7z M254.1,302.9h-11.3
	v-40.1h-13.8v-8.9h38.8v8.7h-13.7V302.9z M298.9,253.8h11v49.1h-11V253.8z"/>
</svg>
